<svg xmlns="http://www.w3.org/2000/svg" fill="none" viewBox="0 0 100 100"><g clip-path="url(#a)"><path fill="url(#b)" d="M49.915 74.438C72.04 104.596 93.69 66.019 93.658 42.82 93.621 15.392 65.82.063 49.898.063 24.338.063 0 21.184 0 50.084 0 82.207 27.9 100 49.897 100c-4.977-.717-21.566-4.271-21.789-42.48-.15-25.84 8.43-36.165 21.753-31.624.299.111 14.696 5.79 14.696 24.344 0 18.475-14.642 24.197-14.642 24.197"/><path fill="url(#c)" d="M49.89 25.875c-14.62-5.038-32.528 7.01-32.528 31.143 0 39.405 29.2 42.982 32.74 42.982C75.66 100 100 78.877 100 49.978 100 17.855 72.1.062 50.103.062 56.195-.782 82.94 6.656 82.94 43.21c0 23.838-19.97 36.815-32.96 31.27-.298-.11-14.696-5.79-14.696-24.343 0-18.475 14.604-24.262 14.604-24.262"/></g><defs><linearGradient id="b" x1="14.79" x2="89.489" y1="14.79" y2="80.397" gradientUnits="userSpaceOnUse"><stop/><stop offset="1" stop-color="#fff"/></linearGradient><linearGradient id="c" x1="85.237" x2="4.386" y1="85.237" y2="30.024" gradientUnits="userSpaceOnUse"><stop/><stop offset="1" stop-color="#fff"/></linearGradient><clipPath id="a"><path fill="#fff" d="M0 0h100v100H0z"/></clipPath></defs></svg>